PathFileType	4	(X/Y/Z)	C:/Users/opensim2020/Desktop/walking_exp_matlab/subject01_walking12_straight_02.trc																																																																																																																																		
DataRate	CameraRate	NumFrames	NumMarkers	Units	OrigDataRate	OrigDataStartFrame	OrigNumFrames																																																																																																																														
100	100	7	44	mm	100	1353	122																																																																																																																														
Frame#	Time	LFHD			RFHD			LBHD			RBHD			C7			T10			CLAV			STRN			RBAK			LSHO			LUPA			LELB			LFRM			LWRA			LWRB			LFIN			RSHO			RUPA			RELB			RFRM			RWRA			RWRB			RFIN			LASI			RASI			LPSI			RPSI			LTHI			LKNE			LTIB			LANK			LHEE			LTOE			RTHI			RKNE			RTIB			RANK			RHEE			RTOE			*39			*40			*41			*42			*43		
		X1	Y1	Z1	X2	Y2	Z2	X3	Y3	Z3	X4	Y4	Z4	X5	Y5	Z5	X6	Y6	Z6	X7	Y7	Z7	X8	Y8	Z8	X9	Y9	Z9	X10	Y10	Z10	X11	Y11	Z11	X12	Y12	Z12	X13	Y13	Z13	X14	Y14	Z14	X15	Y15	Z15	X16	Y16	Z16	X17	Y17	Z17	X18	Y18	Z18	X19	Y19	Z19	X20	Y20	Z20	X21	Y21	Z21	X22	Y22	Z22	X23	Y23	Z23	X24	Y24	Z24	X25	Y25	Z25	X26	Y26	Z26	X27	Y27	Z27	X28	Y28	Z28	X29	Y29	Z29	X30	Y30	Z30	X31	Y31	Z31	X32	Y32	Z32	X33	Y33	Z33	X34	Y34	Z34	X35	Y35	Z35	X36	Y36	Z36	X37	Y37	Z37	X38	Y38	Z38	X39	Y39	Z39	X40	Y40	Z40	X41	Y41	Z41	X42	Y42	Z42	X43	Y43	Z43	X44	Y44	Z44
																																																																																																																																					
107	1.06	332.28607	1647.56921	-1549.06799	343.013	1652.25464	-1435.77136	214.09656	1608.22253	-1544.68237	222.24554	1612.32361	-1423.84204	166.9458	1411.245	-1497.26965	142.77962	1114.28845	-1478.3252	311.5928	1344.15491	-1496.7229	362.72293	1194.04016	-1497.16296	118.55222	1215.5144	-1410.39111	247.63879	1366.59949	-1658.88257	201.41762	1180.19165	-1733.36694	174.57896	1033.42505	-1721.66199	191.59045	920.79242	-1740.87964	245.79555	792.19434	-1715.14722	190.06578	798.04626	-1740.11511	217.91696	715.83521	-1739.24548	250.52142	1375.47888	-1343.67078	201.51962	1178.26318	-1234.85229	214.02077	1051.70398	-1221.45935	291.97244	953.64001	-1201.53516	412.06781	887.78967	-1238.18164	379.28955	867.57953	-1194.7594	448.44794	820.85809	-1202.53955	335.27057	919.86871	-1580.55066	321.68405	909.48431	-1363.88586	145.4339	923.07611	-1541.66895	138.42952	922.07306	-1396.75952	391.50555	605.58368	-1631.91772	415.81448	473.00766	-1610.59314	386.10535	285.22629	-1625.74146	363.79715	69.07144	-1576.35291	314.89749	39.43696	-1527.79846	510.85693	32.6731	-1572.60962	242.46571	574.82074	-1301.16675	224.76993	417.22614	-1314.32214	67.63892	335.07083	-1315.74646	-92.80614	206.51692	-1360.28516	-135.96581	233.23001	-1414.74231	-88.12925	59.15997	-1378.13257	332.56464	1685.86182	-1458.91675	-1973.00549	1023.36902	3102.05762	-2012.55981	1022.11005	3140.72095	NaN	NaN	NaN	NaN	NaN	NaN
108	1.07	345.07135	1648.20654	-1550.1084	355.42386	1652.95874	-1436.72632	226.77774	1609.0907	-1546.09656	234.5621	1613.33301	-1425.24268	179.3439	1412.10022	-1498.58533	154.57437	1115.2854	-1479.63403	323.74405	1344.88684	-1497.59973	374.50043	1194.67786	-1497.86768	130.19859	1216.67188	-1411.74573	260.45416	1367.59387	-1659.90076	216.84529	1180.93335	-1735.23486	191.28473	1033.81274	-1724.34216	209.93555	921.52179	-1743.78003	265.68893	793.4964	-1718.19495	210.02382	798.78375	-1743.49744	239.07455	717.03003	-1743.07813	262.09375	1376.33459	-1344.88013	212.37413	1178.99561	-1236.50525	223.63542	1052.2417	-1224.34473	299.58289	952.51074	-1203.79907	418.70572	884.37048	-1239.30566	385.10892	864.76526	-1196.1958	453.33517	816.55939	-1203.34363	346.78827	920.92383	-1582.19409	333.48438	910.57898	-1365.12048	156.88286	923.56409	-1542.59204	150.07101	921.36792	-1397.62012	399.20032	604.92657	-1633.30823	422.43484	472.27051	-1612.07446	388.74707	285.12204	-1625.36401	364.05804	69.183	-1576.23804	315.15475	39.47844	-1527.70288	511.28333	32.62693	-1572.86572	262.89908	573.9953	-1302.22363	249.25282	416.81857	-1314.83191	91.2532	337.37604	-1315.21545	-72.14779	214.01549	-1361.33215	-114.60777	241.04047	-1417.11182	-72.3185	66.29668	-1375.57764	345.18158	1686.68042	-1460.02527	-1973.12378	1023.43683	3101.89429	-2012.56152	1022.0376	3140.64282	NaN	NaN	NaN	NaN	NaN	NaN
109	1.08	357.79584	1648.90247	-1551.04785	367.81927	1653.72656	-1437.58362	239.46858	1610.09302	-1547.34424	246.86987	1614.41125	-1426.50623	191.35027	1413.15344	-1499.91309	166.18234	1116.39905	-1480.94604	335.72949	1345.87354	-1498.27197	386.14545	1195.38318	-1498.43298	141.7672	1217.84851	-1413.11938	273.18997	1368.68201	-1660.78015	232.29111	1181.83752	-1737.01477	208.03735	1034.34216	-1726.96655	228.50961	922.38269	-1746.65845	286.02438	795.39227	-1721.38745	230.45882	799.82086	-1747.12195	260.82468	718.5401	-1746.91772	273.56067	1377.25793	-1345.84949	223.21016	1179.83423	-1237.87903	233.11649	1052.80505	-1227.10034	306.92468	951.41211	-1205.94568	425.00903	880.86737	-1240.33545	390.40216	861.90759	-1197.73584	457.73996	812.19495	-1204.23035	357.9548	921.76953	-1583.46301	345.01437	911.90094	-1366.06702	168.22995	924.13989	-1543.59485	161.50572	921.12079	-1398.72559	406.31601	604.04572	-1634.59839	428.66071	471.3324	-1613.18738	391.00772	285.19962	-1625.68811	364.55139	69.16428	-1576.0791	315.29813	39.7941	-1527.53345	511.63992	32.33038	-1572.87854	283.27771	574.22949	-1303.14917	273.69336	417.04849	-1315.29736	115.15755	339.49219	-1315.03308	-51.07641	220.82201	-1363.20813	-93.0341	246.66365	-1420.79211	-52.46817	73.05741	-1372.03296	357.87637	1687.52197	-1460.9834	-1973.05127	1023.82129	3101.97119	-2012.48645	1022.1156	3140.61841	NaN	NaN	NaN	NaN	NaN	NaN
110	1.09	370.5376	1649.73511	-1551.729	380.23712	1654.56311	-1438.21948	252.03407	1611.2135	-1548.38647	259.151	1615.58618	-1427.4364	203.17062	1414.22107	-1501.03088	177.67189	1117.58154	-1482.27258	347.67413	1346.87769	-1498.854	397.7449	1196.32129	-1498.89368	153.15396	1219.02551	-1414.6604	285.86987	1369.8363	-1661.44031	247.65004	1182.94629	-1738.69128	224.72717	1035.06042	-1729.56042	247.24806	923.5376	-1749.54456	306.63309	797.15399	-1724.26843	251.31787	800.99084	-1750.54443	283.17712	720.41705	-1750.82373	285.00043	1378.33105	-1346.78003	233.9169	1180.77087	-1239.1377	242.51508	1053.34998	-1229.74194	313.99115	950.25989	-1208.00488	430.87289	877.28821	-1241.31714	395.31036	858.96063	-1199.15466	461.5	807.63245	-1205.03162	369.16214	922.62561	-1584.63403	356.5321	913.58392	-1366.96204	179.43968	924.75897	-1544.68176	172.75575	921.39801	-1400.04919	413.02908	603.08917	-1635.92297	434.4921	470.21298	-1614.01379	393.48758	284.78467	-1626.48706	365.03467	69.2667	-1575.92737	315.5607	40.13029	-1527.30798	511.98648	32.08883	-1572.8324	303.12357	575.22577	-1303.97266	298.09088	417.94632	-1315.77625	139.49133	341.4642	-1315.255	-29.23526	226.6133	-1365.59558	-70.6524	250.95204	-1424.55432	-30.07137	78.79197	-1368.98242	370.52136	1688.42358	-1461.68115	-1973.07874	1023.62366	3101.99194	-2012.52734	1021.94287	3140.74658	NaN	NaN	NaN	NaN	NaN	NaN
111	1.1	383.22299	1650.58179	-1552.22559	392.68768	1655.45508	-1438.66565	264.63495	1612.48291	-1549.18933	271.39362	1616.87109	-1428.29736	214.92316	1415.41992	-1502.04553	188.97427	1118.875	-1483.599	359.30051	1347.83765	-1499.14392	409.07513	1197.20947	-1499.22473	164.5032	1220.17041	-1416.19458	298.48474	1371.09875	-1662.01672	262.8822	1184.15845	-1740.24878	241.4064	1035.84155	-1732.10742	266.13846	924.83893	-1752.43726	327.6402	799.42328	-1727.31592	272.56732	802.4541	-1753.97156	305.99927	722.66864	-1754.82922	295.56393	1378.9845	-1347.77625	244.49792	1181.73828	-1240.29688	251.82576	1053.93298	-1232.12122	320.77411	949.27148	-1209.91394	436.30563	873.53925	-1242.14697	399.9082	856.01648	-1200.46228	464.83792	803.13031	-1205.88525	380.21201	923.53619	-1585.75623	367.95212	915.30249	-1367.85291	190.55968	925.48047	-1545.80005	184.02438	921.86182	-1401.14111	420.03278	602.36176	-1637.25513	439.95944	469.04785	-1614.85364	396.98428	283.91611	-1627.10706	365.59341	69.3659	-1575.84644	315.75665	40.40977	-1527.20581	512.18378	31.84167	-1572.76892	322.84976	576.84753	-1304.68005	322.19418	419.53699	-1316.31812	163.83655	343.25031	-1315.84814	-5.91049	230.83005	-1368.03003	-47.8158	253.74963	-1427.92676	-4.6342	83.50334	-1366.52783	383.06464	1689.28223	-1462.25549	-1973.01965	1023.6991	3101.9729	-2012.51172	1022.01349	3140.72778	NaN	NaN	NaN	NaN	NaN	NaN
112	1.11	395.9025	1651.49292	-1552.54663	405.02802	1656.30432	-1438.93396	277.20767	1613.83582	-1549.83252	283.60214	1618.24683	-1428.92798	226.68292	1416.86719	-1503.06006	200.13893	1120.26868	-1484.95959	370.98172	1348.96912	-1499.5011	420.39523	1198.19556	-1499.55334	175.76242	1221.32996	-1417.8335	310.92499	1372.43457	-1662.45581	278.14816	1185.48853	-1741.73083	258.02695	1036.78125	-1734.58362	285.07642	926.35272	-1755.27039	348.97668	802.10553	-1730.46362	293.98624	804.22546	-1757.45984	329.00095	725.22119	-1758.84399	307.00595	1380.198	-1348.02063	254.84186	1182.73083	-1241.37134	261.22708	1054.61511	-1234.22803	327.34079	948.34814	-1211.6665	441.05823	869.75519	-1243.12109	404.05112	853.38794	-1201.78198	467.73956	798.62189	-1206.70129	391.1084	924.31958	-1586.79211	379.08383	916.99805	-1368.87354	201.50273	926.39264	-1546.86914	195.2359	922.87097	-1402.3501	426.25494	600.78387	-1638.13452	445.23801	468.01126	-1615.5094	401.18134	282.88596	-1627.224	366.00183	69.47013	-1575.8269	315.83173	40.71553	-1527.19714	512.3252	31.68252	-1572.75635	342.23105	578.82495	-1305.38818	346.18408	421.74933	-1317.0459	188.2702	344.97491	-1317.245	18.24408	233.58527	-1370.4082	-24.63459	255.0918	-1430.74731	22.79661	86.99506	-1365.14624	395.59988	1690.15234	-1462.54126	-1972.97083	1023.93817	3102.07495	-2012.51855	1022.10101	3140.74023	NaN	NaN	NaN	NaN	NaN	NaN
113	1.12	408.57028	1652.46985	-1552.62891	417.40878	1657.19397	-1439.01819	289.67865	1615.33716	-1550.33191	295.77603	1619.58911	-1429.39307	238.39726	1418.18286	-1503.81421	211.10834	1121.64905	-1486.3053	382.45493	1350.12878	-1499.69995	431.55954	1199.29639	-1499.9082	186.88817	1222.56323	-1419.41455	323.25903	1373.87708	-1662.8822	293.09277	1187.00012	-1742.98511	274.5813	1037.87463	-1736.99036	304.04172	928.10333	-1758.01477	370.47293	805.19678	-1733.70129	315.54999	806.24664	-1760.89709	352.58319	728.29987	-1762.82446	317.81732	1381.30457	-1348.52319	264.88461	1183.74817	-1242.47681	270.65454	1055.479	-1236.10669	333.77567	947.56165	-1213.24731	445.87198	866.24139	-1243.80103	408.06689	850.38098	-1202.90015	470.17438	794.14417	-1207.4646	402.08023	925.17371	-1587.94226	390.13272	918.68396	-1370.0636	212.43036	927.41742	-1547.8241	206.37143	924.21545	-1403.32422	433.25113	600.1958	-1638.89844	450.22845	467.02396	-1615.89844	404.90897	282.38882	-1627.16394	366.29651	69.55325	-1575.76575	315.87088	41.28919	-1527.21289	512.45941	31.51417	-1572.67908	361.54956	580.93201	-1306.09814	369.89432	424.2789	-1317.93213	212.78374	346.36124	-1319.12305	43.26809	235.04295	-1372.44092	-0.99687	255.01019	-1432.88611	51.50141	89.03209	-1364.58447	407.94391	1690.90955	-1462.65063	-1972.99683	1023.95441	3101.88647	-2012.46277	1022.10626	3140.66479	NaN	NaN	NaN	NaN	NaN	NaN
